<?xml version="1.0" encoding="UTF-8"?>
<svg id="Layer_1" data-name="Layer 1" xmlns="http://www.w3.org/2000/svg" viewBox="0 0 22.35 25.82">
  <defs>
    <style>
      .cls-1 {
        fill: #dd6b26;
        stroke-width: 0px;
      }
    </style>
  </defs>
  <path class="cls-1" d="m21.02,3.87c-.89-1.3-2.12-2.27-3.71-2.91-1.59-.64-3.45-.96-5.59-.96H.96c-.25,0-.47.09-.66.28-.2.18-.3.41-.3.68v23.9c0,.27.1.5.3.68.2.18.42.28.66.28h6.31c.27,0,.5-.09.68-.28.18-.18.28-.41.28-.68v-7.56h0v-4.76l-1.28-.02c-.76,0-1.22-.85-.82-1.49l3.79-6.07c.39-.62,1.29-.61,1.67.02l3.62,6.07c.39.65-.08,1.47-.83,1.48l-1.28.02v4.71c1.58-.1,2.99-.38,4.23-.84,1.59-.59,2.82-1.52,3.71-2.78.89-1.27,1.33-2.88,1.33-4.85s-.44-3.6-1.33-4.91Z"/>
</svg>